<?xml version="1.0" encoding="UTF-8"?>
<svg width="38px" height="38px" viewBox="0 0 38 38" version="1.1" xmlns="http://www.w3.org/2000/svg" xmlns:xlink="http://www.w3.org/1999/xlink">
    <!-- Generator: Sketch 53.2 (72643) - https://sketchapp.com -->
    <title>Rectangle 8</title>
    <desc>Created with Sketch.</desc>
    <defs>
        <linearGradient x1="180.269053%" y1="177.963812%" x2="8.53406048%" y2="0%" id="linearGradient-1">
            <stop stop-color="#1ACBFD" offset="0%"></stop>
            <stop stop-color="#345AFF" offset="100%"></stop>
        </linearGradient>
    </defs>
    <g id="Page-1" stroke="none" stroke-width="1" fill="none" fill-rule="evenodd">
        <g id="Desktop-HD" transform="translate(-1176.000000, -4269.000000)">
            <g id="Rectangle-8" transform="translate(1176.000000, 4269.000000)">
                <rect id="Rectangle-3" fill="url(#linearGradient-1)" x="0" y="0" width="38" height="38" rx="6"></rect>
                <path d="M21.6994275,11.003121 L19.7803435,11 C17.6245731,11 16.2310098,12.5457359 16.2310098,14.9376837 L16.2310098,16.7534916 L14.3013422,16.7534916 C14.1352769,16.7534916 14,16.8989311 14,17.0793259 L14,19.7103436 C14,19.8899061 14.1352769,20.0361778 14.3013422,20.0361778 L16.2310098,20.0361778 L16.2310098,26.6741658 C16.2310098,26.8537283 16.3662866,27 16.5331217,27 L19.0496945,27 C19.2165296,27 19.3518064,26.8537283 19.3518064,26.6741658 L19.3518064,20.0361778 L21.6076394,20.0361778 C21.7744744,20.0361778 21.909174,19.8899061 21.909174,19.7103436 L21.910521,17.0793259 C21.910521,16.9931858 21.8781931,16.9103748 21.8218117,16.8485786 C21.7654303,16.7876148 21.688844,16.7534916 21.6084091,16.7534916 L19.3518064,16.7534916 L19.3518064,15.2142058 C19.3518064,14.4745247 19.5149853,14.0989623 20.4057344,14.0989623 L21.6986578,14.09813 C21.8654929,14.09813 22,13.9518583 22,13.7722958 L22,11.3299956 C22,11.1493927 21.8654929,11.0039533 21.6994275,11.003121 Z" id="facebook-logo" fill="#FFFFFF"></path>
            </g>
        </g>
    </g>
</svg>