<?xml version="1.0" encoding="UTF-8"?><!DOCTYPE svg PUBLIC "-//W3C//DTD SVG 1.1//EN" "http://www.w3.org/Graphics/SVG/1.1/DTD/svg11.dtd"><svg xmlns="http://www.w3.org/2000/svg" xmlns:xlink="http://www.w3.org/1999/xlink" xmlns:dc="http://purl.org/dc/elements/1.1/" xmlns:cc="http://creativecommons.org/ns#" xmlns:rdf="http://www.w3.org/1999/02/22-rdf-syntax-ns#" xmlns:svg="http://www.w3.org/2000/svg" xmlns:sodipodi="http://sodipodi.sourceforge.net/DTD/sodipodi-0.dtd" xmlns:inkscape="http://www.inkscape.org/namespaces/inkscape">


	<symbol id="email" viewBox="0 0 510 510" >
		<g >
			<path d="M459,51H51C22.95,51,0,73.95,0,102v306c0,28.05,22.95,51,51,51h408c28.05,0,51-22.95,51-51V102
			C510,73.95,487.05,51,459,51z M459,153L255,280.5L51,153v-51l204,127.5L459,102V153z"/>
		</g>
	</symbol>

	<symbol  id="facebook" viewBox="0 0 38 38" >
		<!-- Generator: Sketch 53.2 (72643) - https://sketchapp.com -->
		<title>Rectangle 8</title>
		<desc>Created with Sketch.</desc>
		<defs>
			<linearGradient x1="180.269053%" y1="177.963812%" x2="8.53406048%" y2="0%" id="linearGradient-1">
				<stop stop-color="#1ACBFD" offset="0%"></stop>
				<stop stop-color="#345AFF" offset="100%"></stop>
			</linearGradient>
		</defs>
		<g id="Page-1" stroke="none" stroke-width="1" fill="none" fill-rule="evenodd">
			<g id="Desktop-HD" transform="translate(-1176.000000, -4269.000000)">
				<g id="Rectangle-8" transform="translate(1176.000000, 4269.000000)">
					<rect id="Rectangle-3" fill="url(#linearGradient-1)" x="0" y="0" width="38" height="38" rx="6"></rect>
					<path d="M21.6994275,11.003121 L19.7803435,11 C17.6245731,11 16.2310098,12.5457359 16.2310098,14.9376837 L16.2310098,16.7534916 L14.3013422,16.7534916 C14.1352769,16.7534916 14,16.8989311 14,17.0793259 L14,19.7103436 C14,19.8899061 14.1352769,20.0361778 14.3013422,20.0361778 L16.2310098,20.0361778 L16.2310098,26.6741658 C16.2310098,26.8537283 16.3662866,27 16.5331217,27 L19.0496945,27 C19.2165296,27 19.3518064,26.8537283 19.3518064,26.6741658 L19.3518064,20.0361778 L21.6076394,20.0361778 C21.7744744,20.0361778 21.909174,19.8899061 21.909174,19.7103436 L21.910521,17.0793259 C21.910521,16.9931858 21.8781931,16.9103748 21.8218117,16.8485786 C21.7654303,16.7876148 21.688844,16.7534916 21.6084091,16.7534916 L19.3518064,16.7534916 L19.3518064,15.2142058 C19.3518064,14.4745247 19.5149853,14.0989623 20.4057344,14.0989623 L21.6986578,14.09813 C21.8654929,14.09813 22,13.9518583 22,13.7722958 L22,11.3299956 C22,11.1493927 21.8654929,11.0039533 21.6994275,11.003121 Z" id="facebook-logo" fill="#FFFFFF"></path>
				</g>
			</g>
		</g>
	</symbol>

	<symbol id="twetter" viewBox="0 0 38 38" >
		<!-- Generator: Sketch 53.2 (72643) - https://sketchapp.com -->
		<title>Rectangle 3 Copy 5</title>
		<desc>Created with Sketch.</desc>
		<defs>
			<linearGradient x1="180.269053%" y1="177.963812%" x2="8.53406048%" y2="0%" id="linearGradient-1">
				<stop stop-color="#1ACBFD" offset="0%"></stop>
				<stop stop-color="#345AFF" offset="100%"></stop>
			</linearGradient>
		</defs>
		<g id="Page-1" stroke="none" stroke-width="1" fill="none" fill-rule="evenodd">
			<g id="Desktop-HD" transform="translate(-1268.000000, -4269.000000)">
				<g id="Rectangle-3-Copy-5" transform="translate(1268.000000, 4269.000000)">
					<rect id="Rectangle-3-Copy-2" fill="url(#linearGradient-1)" x="0" y="0" width="38" height="38" rx="6"></rect>
					<path d="M27,15.5377957 C26.4137958,15.7978457 25.7788454,15.9778804 25.1151473,16.0566455 C25.7938442,15.6503174 26.3113038,15.0064435 26.5600344,14.2387959 C25.925084,14.6151183 25.2226389,14.8889209 24.4701976,15.0351991 C23.8752441,14.4000769 23.0203109,14 22.0778845,14 C20.266776,14 18.7968909,15.4702827 18.7968909,17.2818811 C18.7968909,17.5406809 18.8268885,17.7894787 18.8806343,18.0295249 C16.1508476,17.8919985 13.7347863,16.5879977 12.113663,14.6001154 C11.8299352,15.0839585 11.6686978,15.6503174 11.6686978,16.251683 C11.6686978,17.3894018 12.2499024,18.3958454 13.1285837,18.9809579 C12.5911257,18.9672052 12.0886649,18.8159261 11.6449496,18.570879 L11.6449496,18.6108867 C11.6449496,20.2024428 12.7773611,21.5301981 14.2759941,21.8340065 C14.0022654,21.9065205 13.7097883,21.9452779 13.4123115,21.9452779 C13.2023279,21.9452779 12.997344,21.9265243 12.79236,21.8877669 C13.2123272,23.1917676 14.4222326,24.1381997 15.8583704,24.1682054 C14.7347082,25.0471244 13.3185689,25.5697249 11.781189,25.5697249 C11.5174596,25.5697249 11.2587298,25.5547221 11,25.5259665 C12.4548863,26.4586459 14.1785017,27 16.0333568,27 C22.0678853,27 25.3688774,21.9990383 25.3688774,17.6632045 L25.3588782,17.2381227 C26.0038278,16.7742835 26.5600344,16.1979227 27,15.5377957 Z" id="twitter-logo-silhouette" fill="#FBFCFD"></path>
				</g>
			</g>
		</g>
	</symbol>

</svg>