<?xml version="1.0" encoding="UTF-8"?>
<svg width="38px" height="38px" viewBox="0 0 38 38" version="1.1" xmlns="http://www.w3.org/2000/svg" xmlns:xlink="http://www.w3.org/1999/xlink">
    <!-- Generator: Sketch 53.2 (72643) - https://sketchapp.com -->
    <title>Rectangle 3 Copy 6</title>
    <desc>Created with Sketch.</desc>
    <defs>
        <linearGradient x1="180.269053%" y1="177.963812%" x2="8.53406048%" y2="0%" id="linearGradient-1">
            <stop stop-color="#1ACBFD" offset="0%"></stop>
            <stop stop-color="#345AFF" offset="100%"></stop>
        </linearGradient>
    </defs>
    <g id="Page-1" stroke="none" stroke-width="1" fill="none" fill-rule="evenodd">
        <g id="Desktop-HD" transform="translate(-1222.000000, -4269.000000)">
            <g id="Rectangle-3-Copy-6" transform="translate(1222.000000, 4269.000000)">
                <rect id="Rectangle-3-Copy" fill="url(#linearGradient-1)" x="0" y="0" width="38" height="38" rx="6"></rect>
                <g id="vk" transform="translate(8.000000, 15.000000)" fill="#FBFCFD">
                    <path d="M15.4914483,6.35836551 C16.0886181,6.93075122 16.7186846,7.46910004 17.2543484,8.09932668 C17.4909098,8.37909679 17.7149779,8.66801114 17.8861892,8.99284929 C18.1290343,9.45463326 17.9090322,9.96293674 17.4871396,9.99073231 L14.865078,9.98935342 C14.1885123,10.0445817 13.6490784,9.77729421 13.1953979,9.32342072 C12.832424,8.96026387 12.4959893,8.57388356 12.1471351,8.19853439 C12.0039415,8.04518699 11.8540946,7.90083867 11.6750472,7.78689857 C11.3172481,7.55865551 11.0065394,7.62839846 10.8017659,7.99496626 C10.5935919,8.36777536 10.5462057,8.78049978 10.5257283,9.19612713 C10.4977106,9.80218685 10.3111227,9.96155784 9.69088826,9.98935342 C8.36510933,10.050823 7.10726788,9.85378648 5.93858052,9.19750602 C4.90828159,8.61866129 4.10922145,7.80163095 3.41387871,6.87690182 C2.05978634,5.07563224 1.02283412,3.09655804 0.0909299548,1.06225556 C-0.118944384,0.603809949 0.034672691,0.357786424 0.549859118,0.349005054 C1.40517652,0.332821205 2.26049392,0.333982378 3.11699413,0.347843881 C3.4646655,0.352924012 3.69479541,0.548581659 3.82911794,0.871170028 C4.29203908,1.98836358 4.85830799,3.05119972 5.56924899,4.03660014 C5.75842421,4.29880752 5.9515914,4.56108746 6.22652013,4.74593169 C6.53057548,4.95029813 6.7618882,4.88251466 6.90508179,4.54998375 C6.99578831,4.3390857 7.03563412,4.11200381 7.05611147,3.8860831 C7.12367933,3.10904065 7.13262431,2.3333771 7.01397397,1.55916502 C6.94093563,1.07582677 6.66371521,0.763180941 6.17248063,0.671593422 C5.92179944,0.625073929 5.95905787,0.533558984 6.08066522,0.392911907 C6.29120489,0.150807341 6.48954686,0 6.88460444,0 L9.84827554,0 C10.3148929,0.0904263458 10.4186103,0.296244256 10.482408,0.756939636 L10.4849954,3.98870176 C10.4798206,4.16730468 10.5757019,4.69658183 10.9031177,4.81480376 C11.1650356,4.89869851 11.3377254,4.6928806 11.494817,4.52988094 C12.2043534,3.79057662 12.7108166,2.91679395 13.1633143,2.0122402 C13.3640219,1.61417559 13.5367117,1.20116087 13.7039311,0.78836388 C13.8281258,0.48195936 14.0224758,0.331369739 14.3739174,0.337901337 L17.2263307,0.340441403 C17.3106796,0.340441403 17.3964331,0.341602576 17.4781947,0.355464078 C17.9590058,0.436020454 18.090667,0.639008005 17.9422247,1.09963081 C17.7083246,1.82253356 17.2532395,2.42496462 16.8082083,3.03022604 C16.332646,3.67627365 15.8238171,4.30025898 15.3522467,4.95029813 C14.9188218,5.54394782 14.9531232,5.84302243 15.4914483,6.35836551 Z" id="Fill-1"></path>
                </g>
            </g>
        </g>
    </g>
</svg>