<?xml version="1.0" encoding="UTF-8"?>
<svg width="38px" height="38px" viewBox="0 0 38 38" version="1.1" xmlns="http://www.w3.org/2000/svg" xmlns:xlink="http://www.w3.org/1999/xlink">
    <!-- Generator: Sketch 53.2 (72643) - https://sketchapp.com -->
    <title>Rectangle 3 Copy 4</title>
    <desc>Created with Sketch.</desc>
    <defs>
        <linearGradient x1="180.269053%" y1="177.963812%" x2="8.53406048%" y2="0%" id="linearGradient-1">
            <stop stop-color="#1ACBFD" offset="0%"></stop>
            <stop stop-color="#345AFF" offset="100%"></stop>
        </linearGradient>
        <polygon id="path-2" points="0.00244897959 0.0323424302 0.00244897959 11.997551 11.9654286 11.997551 11.9654286 0.0323424302"></polygon>
    </defs>
    <g id="Page-1" stroke="none" stroke-width="1" fill="none" fill-rule="evenodd">
        <g id="Desktop-HD" transform="translate(-1314.000000, -4269.000000)">
            <g id="Rectangle-3-Copy-4" transform="translate(1314.000000, 4269.000000)">
                <rect id="Rectangle-3-Copy-3" fill="url(#linearGradient-1)" x="0" y="0" width="38" height="38" rx="6"></rect>
                <g id="google-plus" transform="translate(11.000000, 13.000000)">
                    <g id="Group-3">
                        <mask id="mask-3" fill="white">
                            <use xlink:href="#path-2"></use>
                        </mask>
                        <g id="Clip-2"></g>
                        <path d="M6.56232653,7.25065306 L9.48453061,7.25065306 C8.97159184,8.70085714 7.58236735,9.74061224 5.95595918,9.72861224 C3.98253061,9.71404082 2.35077551,8.13534694 2.27416327,6.16334694 C2.19204082,4.0495102 3.88791837,2.30363265 5.98383673,2.30363265 C6.94216327,2.30363265 7.81669388,2.66877551 8.476,3.26710204 C8.63216327,3.40885714 8.86987755,3.4097551 9.02346939,3.26518367 L10.0967755,2.25502041 C10.2646122,2.09702041 10.2652245,1.83020408 10.0978776,1.67167347 C9.05228571,0.681102041 7.64967347,0.0636734694 6.10293878,0.0334693878 C2.80391837,-0.0309387755 0.0231428571,2.67391837 0.000163265306,5.9735102 C-0.0230204082,9.29787755 2.66485714,12 5.98383673,12 C9.17563265,12 11.7830612,9.50085714 11.9577143,6.35273469 C11.9623673,6.31326531 11.9654286,4.97934694 11.9654286,4.97934694 L6.56232653,4.97934694 C6.34085714,4.97934694 6.16134694,5.15885714 6.16134694,5.38032653 L6.16134694,6.84967347 C6.16134694,7.07114286 6.34089796,7.25065306 6.56232653,7.25065306" id="Fill-1" fill="#FBFCFD" mask="url(#mask-3)"></path>
                    </g>
                    <path d="M17.0452428,4.95475719 L17.0452428,3.3843704 C17.0452428,3.1720715 16.8731713,3 16.6608724,3 L15.3391276,3 C15.1268287,3 14.9547572,3.1720715 14.9547572,3.3843704 L14.9547572,4.95475719 L13.3843704,4.95475719 C13.1720715,4.95475719 13,5.12682869 13,5.33912759 L13,6.66087241 C13,6.87317131 13.1720715,7.04524281 13.3843704,7.04524281 L14.9547572,7.04524281 L14.9547572,8.6156296 C14.9547572,8.8279285 15.1268287,9 15.3391276,9 L16.6608724,9 C16.8731713,9 17.0452428,8.8279285 17.0452428,8.6156296 L17.0452428,7.04524281 L18.6156296,7.04524281 C18.8279285,7.04524281 19,6.87317131 19,6.66087241 L19,5.33912759 C19,5.12682869 18.8279285,4.95475719 18.6156296,4.95475719 L17.0452428,4.95475719" id="Fill-4" fill="#FBFCFD"></path>
                </g>
            </g>
        </g>
    </g>
</svg>